# xmcd
# Copyright (c) 1998 CDDB Inc.
#
# Track frame offsets:
#	150
#	13040
#	27792
#	38537
#	50547
#	63192
#	76920
#	89180
#	102290
#	115682
#	141012
#	154050
#	168102
#	180642
#	198257
#	210705
#	223675
#	237472
#	249537
#	261077
#	273922
#	288242
#	298157
#
# Disc length: 4086 seconds
#
# Revision: 1
# Processed by: cddbd v1.4PL0 Copyright (c) Steve Scherf et al.
# Submitted via: audiograbber 1.70
#
DISCID=460ff417
DTITLE=Varios Artistas - Pioneiros Sertanejos
DYEAR=1900
DGENRE=
TTITLE0=Raul Torres e Florencio - Marica Criolinha
TTITLE1=Ze Carreiro e Carreirinho - Canoeiro
TTITLE2=Sulino, Marrueiro e Douradense - Flor Matogrossense
TTITLE3=Tonico e Tinoco - Hoje e Meu Aniversario
TTITLE4=Zico e Zeca - A Caneta e a Enxada
TTITLE5=Leoncio e Leonel - Cacho de Uva
TTITLE6=Irmaos Divino - Filho do Diabo
TTITLE7=Castigo do Fazendeiro - Castigo do Fazendeiro
TTITLE8=Vieira e Vierinha - Assombracao
TTITLE9=Pavao do Norte,Damiao e Basilio - Folia de Reis
TTITLE10=Trio Gaucho - Percorrendo Sao Paulo
TTITLE11=Pedro Bento e Ze da Estrada - Seresteiro da Lua
TTITLE12=Ze Fortuna e Pitangueira - A Historia dos Times
TTITLE13=Barrtto e Barretinho - Lagrimas
TTITLE14=Cascatinha e Inhana - Meu Passado
TTITLE15=Silveira e Silveirinha - Velho Amor
TTITLE16=Liu e Leo - Saudade da Minha Terra
TTITLE17=Zilo e Zalo - Chora Coracao
TTITLE18=Belmiro e Belmonte - Historia do Ladrao
TTITLE19=Abel e Caim - Morena dos Olhos Pretos
TTITLE20=Mococa e Moraci - Fuscao Preto
TTITLE21=Tibagi e Miltinho - Orgulho
TTITLE22=Charanga e Chara - Dona Chiquinha
EXTD=
EXTT0=
EXTT1=
EXTT2=
EXTT3=
EXTT4=
EXTT5=
EXTT6=
EXTT7=
EXTT8=
EXTT9=
EXTT10=
EXTT11=
EXTT12=
EXTT13=
EXTT14=
EXTT15=
EXTT16=
EXTT17=
EXTT18=
EXTT19=
EXTT20=
EXTT21=
EXTT22=
PLAYORDER=
